<svg width="32" height="32" viewBox="0 0 32 32" fill="none" xmlns="http://www.w3.org/2000/svg">
<path fill-rule="evenodd" clip-rule="evenodd" d="M16 32C24.8366 32 32 24.8366 32 16C32 7.16344 24.8366 0 16 0C7.16344 0 0 7.16344 0 16C0 24.8366 7.16344 32 16 32ZM10.0742 14.4951C10.957 11.6429 13.5547 9.57402 16.625 9.57402H20.6875C22.3555 9.57402 23.8086 8.61391 24.543 7.19987C24.6797 6.93875 25.0742 6.9267 25.1758 7.20388C25.707 8.67015 26 10.2971 26 12.0084C26 18.456 21.8242 23.6864 16.6641 23.7145H16.625C13.4336 23.7145 10.75 21.4769 9.97656 18.444C8.68359 19.6772 7.875 21.4368 7.875 23.3931V24.0359C7.875 24.5702 7.45703 25 6.9375 25C6.41797 25 6 24.5702 6 24.0359V23.3931C6 20.3762 7.49609 17.7209 9.76172 16.1662C10.6016 15.5918 11.5391 15.17 12.5508 14.9329C13.1602 14.7923 13.7891 14.716 14.4375 14.716H17.25H17.875C18.2188 14.716 18.5 14.4268 18.5 14.0733C18.5 13.7198 18.2188 13.4305 17.875 13.4305H14.4375C12.8672 13.4305 11.3867 13.8121 10.0742 14.4951Z" fill="url(#paint0_linear_119_1227)"/>
<defs>
<linearGradient id="paint0_linear_119_1227" x1="16" y1="1.5" x2="16" y2="35" gradientUnits="userSpaceOnUse">
<stop offset="0.133339" stop-color="#4D996C"/>
<stop offset="1" stop-color="#255F38"/>
</linearGradient>
</defs>
</svg>
