<svg width="240" height="82" viewBox="0 0 240 82" fill="none" xmlns="http://www.w3.org/2000/svg">
<path d="M58.7494 8.85929V44.9146V80.9698H42.7361V51.0955H15.9113V80.9698H0V8.85929H15.9113V38.5276H42.7361V8.85929H58.7494ZM129.196 80.9698H113.183V72.8317H112.469C111.313 75.3727 109.477 77.536 106.961 79.3216C104.445 81.1072 101.386 82 97.7818 82C90.7781 82 85.9843 79.7337 83.4004 75.201C80.8165 70.6683 79.5246 65.6206 79.5246 60.0578V26.4749H95.3339V57.3794C95.3339 60.8132 96.0479 63.5946 97.4758 65.7236C98.9037 67.7839 101.114 68.8141 104.105 68.8141C107.233 68.8141 109.511 67.7496 110.939 65.6206C112.435 63.4229 113.183 60.6759 113.183 57.3794V26.4749H129.196V80.9698ZM150.483 26.4749H166.395V34.407H167.211C168.366 31.866 170.236 29.737 172.82 28.0201C175.472 26.2345 178.668 25.3417 182.408 25.3417C189.48 25.3417 194.375 27.608 197.095 32.1407C199.815 36.6047 201.175 41.6181 201.175 47.1809V80.9698H185.264V49.9623C185.264 46.3911 184.482 43.5754 182.918 41.5151C181.354 39.4548 179.042 38.4246 175.982 38.4246C172.718 38.4246 170.304 39.5234 168.74 41.7211C167.177 43.8501 166.395 46.5972 166.395 49.9623V80.9698H150.483V26.4749ZM223.477 26.4749H239.286V80.9698H223.477V26.4749ZM231.33 17.4095C228.882 17.4095 226.843 16.5854 225.211 14.9372C223.579 13.2203 222.763 11.16 222.763 8.75627C222.763 6.28391 223.579 4.22361 225.211 2.57537C226.843 0.858453 228.882 0 231.33 0C233.778 0 235.818 0.858453 237.45 2.57537C239.15 4.22361 240 6.28391 240 8.75627C240 11.16 239.15 13.2203 237.45 14.9372C235.818 16.5854 233.778 17.4095 231.33 17.4095Z" fill="url(#paint0_linear_543_3643)"/>
<defs>
<linearGradient id="paint0_linear_543_3643" x1="120" y1="35.1367" x2="120" y2="82" gradientUnits="userSpaceOnUse">
<stop stop-color="#F2F2F2"/>
<stop offset="1" stop-color="#8F8F8F"/>
</linearGradient>
</defs>
</svg>
