<svg width="37" height="40" viewBox="0 0 37 40" fill="none" xmlns="http://www.w3.org/2000/svg">
<g clip-path="url(#clip0_1_19)">
<mask id="mask0_1_19" style="mask-type:luminance" maskUnits="userSpaceOnUse" x="0" y="0" width="37" height="40">
<path d="M37 0H0V40H37V0Z" fill="white"/>
</mask>
<g mask="url(#mask0_1_19)">
<path d="M4.11111 3.125C3.54583 3.125 3.08333 3.59375 3.08333 4.16667V20.8333C3.08333 21.4063 3.54583 21.875 4.11111 21.875H32.8889C33.4542 21.875 33.9167 21.4063 33.9167 20.8333V4.16667C33.9167 3.59375 33.4542 3.125 32.8889 3.125H4.11111ZM0 4.16667C0 1.86849 1.84357 0 4.11111 0H32.8889C35.1564 0 37 1.86849 37 4.16667V20.8333C37 23.1315 35.1564 25 32.8889 25H4.11111C1.84357 25 0 23.1315 0 20.8333V4.16667ZM11.3055 16.6667H25.6945C26.2597 16.6667 26.7222 17.1354 26.7222 17.7083V18.75C26.7222 19.3229 26.2597 19.7917 25.6945 19.7917H11.3055C10.7403 19.7917 10.2778 19.3229 10.2778 18.75V17.7083C10.2778 17.1354 10.7403 16.6667 11.3055 16.6667ZM6.68053 11.9792C6.68053 11.4062 7.14303 10.9375 7.70833 10.9375H8.73613C9.30137 10.9375 9.76387 11.4062 9.76387 11.9792V13.0208C9.76387 13.5938 9.30137 14.0625 8.73613 14.0625H7.70833C7.14303 14.0625 6.68053 13.5938 6.68053 13.0208V11.9792ZM7.70833 5.72917H8.73613C9.30137 5.72917 9.76387 6.19792 9.76387 6.77081V7.8125C9.76387 8.38544 9.30137 8.85419 8.73613 8.85419H7.70833C7.14303 8.85419 6.68053 8.38544 6.68053 7.8125V6.77081C6.68053 6.19792 7.14303 5.72917 7.70833 5.72917ZM11.8195 11.9792C11.8195 11.4062 12.282 10.9375 12.8472 10.9375H13.875C14.4403 10.9375 14.9028 11.4062 14.9028 11.9792V13.0208C14.9028 13.5938 14.4403 14.0625 13.875 14.0625H12.8472C12.282 14.0625 11.8195 13.5938 11.8195 13.0208V11.9792ZM12.8472 5.72917H13.875C14.4403 5.72917 14.9028 6.19792 14.9028 6.77081V7.8125C14.9028 8.38544 14.4403 8.85419 13.875 8.85419H12.8472C12.282 8.85419 11.8195 8.38544 11.8195 7.8125V6.77081C11.8195 6.19792 12.282 5.72917 12.8472 5.72917ZM16.9583 11.9792C16.9583 11.4062 17.4208 10.9375 17.9861 10.9375H19.0139C19.5792 10.9375 20.0417 11.4062 20.0417 11.9792V13.0208C20.0417 13.5938 19.5792 14.0625 19.0139 14.0625H17.9861C17.4208 14.0625 16.9583 13.5938 16.9583 13.0208V11.9792ZM17.9861 5.72917H19.0139C19.5792 5.72917 20.0417 6.19792 20.0417 6.77081V7.8125C20.0417 8.38544 19.5792 8.85419 19.0139 8.85419H17.9861C17.4208 8.85419 16.9583 8.38544 16.9583 7.8125V6.77081C16.9583 6.19792 17.4208 5.72917 17.9861 5.72917ZM22.0972 11.9792C22.0972 11.4062 22.5597 10.9375 23.125 10.9375H24.1528C24.718 10.9375 25.1805 11.4062 25.1805 11.9792V13.0208C25.1805 13.5938 24.718 14.0625 24.1528 14.0625H23.125C22.5597 14.0625 22.0972 13.5938 22.0972 13.0208V11.9792ZM23.125 5.72917H24.1528C24.718 5.72917 25.1805 6.19792 25.1805 6.77081V7.8125C25.1805 8.38544 24.718 8.85419 24.1528 8.85419H23.125C22.5597 8.85419 22.0972 8.38544 22.0972 7.8125V6.77081C22.0972 6.19792 22.5597 5.72917 23.125 5.72917ZM27.2361 11.9792C27.2361 11.4062 27.6986 10.9375 28.2639 10.9375H29.2917C29.857 10.9375 30.3195 11.4062 30.3195 11.9792V13.0208C30.3195 13.5938 29.857 14.0625 29.2917 14.0625H28.2639C27.6986 14.0625 27.2361 13.5938 27.2361 13.0208V11.9792ZM28.2639 5.72917H29.2917C29.857 5.72917 30.3195 6.19792 30.3195 6.77081V7.8125C30.3195 8.38544 29.857 8.85419 29.2917 8.85419H28.2639C27.6986 8.85419 27.2361 8.38544 27.2361 7.8125V6.77081C27.2361 6.19792 27.6986 5.72917 28.2639 5.72917Z" fill="white"/>
<path d="M9.2944 28.875V39.375H6.9708V35.025H3.0784V39.375H0.7696V28.875H3.0784V33.195H6.9708V28.875H9.2944ZM19.5166 39.375H17.193V38.19H17.0894C16.9216 38.56 16.6552 38.875 16.2902 39.135C15.9251 39.395 15.4811 39.525 14.9582 39.525C13.9419 39.525 13.2463 39.195 12.8714 38.535C12.4964 37.875 12.309 37.14 12.309 36.33V31.44H14.603V35.94C14.603 36.44 14.7066 36.845 14.9138 37.155C15.121 37.455 15.4416 37.605 15.8758 37.605C16.3296 37.605 16.6602 37.45 16.8674 37.14C17.0844 36.82 17.193 36.42 17.193 35.94V31.44H19.5166V39.375ZM22.6054 31.44H24.9142V32.595H25.0326C25.2003 32.225 25.4717 31.915 25.8466 31.665C26.2314 31.405 26.6951 31.275 27.2378 31.275C28.2639 31.275 28.9743 31.605 29.369 32.265C29.7637 32.915 29.961 33.645 29.961 34.455V39.375H27.6522V34.86C27.6522 34.34 27.5387 33.93 27.3118 33.63C27.0849 33.33 26.7494 33.18 26.3054 33.18C25.8318 33.18 25.4815 33.34 25.2546 33.66C25.0277 33.97 24.9142 34.37 24.9142 34.86V39.375H22.6054V31.44ZM33.1971 31.44H35.4911V39.375H33.1971V31.44ZM34.3367 30.12C33.9815 30.12 33.6855 30 33.4487 29.76C33.2119 29.51 33.0935 29.21 33.0935 28.86C33.0935 28.5 33.2119 28.2 33.4487 27.96C33.6855 27.71 33.9815 27.585 34.3367 27.585C34.6919 27.585 34.9879 27.71 35.2247 27.96C35.4713 28.2 35.5947 28.5 35.5947 28.86C35.5947 29.21 35.4713 29.51 35.2247 29.76C34.9879 30 34.6919 30.12 34.3367 30.12Z" fill="white"/>
</g>
</g>
<defs>
<clipPath id="clip0_1_19">
<rect width="37" height="40" fill="white"/>
</clipPath>
</defs>
</svg>
